<svg width="1435" height="806" viewBox="0 0 1435 806" fill="none" xmlns="http://www.w3.org/2000/svg">
<path d="M575.713 296.939L400.469 110.655H398.053V296.939H360.103V69.2566H410.126L585.376 256.233H587.789V69.2566H625.738V296.939H575.713Z" fill="#000202"/>
<path d="M667.132 69.2566H894.818V110.655H699.909V164.814H886.197V199.312H699.909V255.544H894.818V296.939H667.132V69.2566Z" fill="#000202"/>
<path d="M65.5839 139.034L64.4855 137.057L220.18 53.9614L221.587 56.4967L222.994 53.9614L319.084 105.245V0H0V295.449H64.9984V139.034H65.5839Z" fill="#C21919"/>
<path d="M1191.5 69.2566V70.9817L1072.14 296.939H1022.11L899.99 70.9817V69.2566H941.389L1041.78 253.819H1045.23L1141.47 69.2566H1191.5Z" fill="#000202"/>
<path d="M1238.41 202.762H1344.32L1292.57 108.926H1289.12L1238.41 202.762ZM1221.16 240.711L1189.42 296.939H1143.2V295.91L1267.05 69.2566H1310.17L1434.71 295.91V296.939H1396.07L1363.98 240.711H1221.16Z" fill="#000202"/>
<path d="M268.052 528.386C285.067 528.386 297.487 525.918 305.308 520.969C313.126 516.029 317.038 508.264 317.038 497.682C317.038 487.105 313.183 479.457 305.482 474.744C297.774 470.03 285.3 467.671 268.052 467.671H108.327V528.386H268.052ZM254.251 436.967C270.348 436.967 281.618 435.129 288.058 431.448C294.495 427.771 297.718 421.332 297.718 412.127C297.718 406.838 296.684 402.36 294.613 398.675C292.544 395.002 289.094 392.064 284.266 389.877C279.435 387.694 273.107 386.082 265.292 385.046C257.47 384.013 247.696 383.497 235.966 383.497H108.327V436.967H254.251ZM248.042 342.098C260.231 342.098 271.381 343.425 281.506 346.065C291.622 348.713 300.307 352.621 307.551 357.792C314.795 362.972 320.429 369.297 324.454 376.773C328.476 384.244 330.492 392.928 330.492 402.817C330.492 412.471 328.822 420.639 325.488 427.309C322.153 433.983 317.728 439.612 312.208 444.212V445.249C323.937 450.08 333.132 457.492 339.805 467.495C346.474 477.505 349.81 489.061 349.81 502.169C349.81 525.402 341.068 542.476 323.593 553.398C306.111 564.32 281.851 569.785 250.801 569.785H75.5527V342.098H248.042Z" fill="#000202"/>
<path d="M363.611 342.098H396.382V444.212C396.382 460.313 398.851 474.001 403.799 485.262C408.741 496.532 415.581 505.737 424.323 512.864C433.062 519.995 443.526 525.229 455.719 528.558C467.909 531.895 481.248 533.561 495.737 533.561C510.227 533.561 523.507 531.895 535.583 528.558C547.654 525.229 558.118 519.995 566.975 512.864C575.823 505.737 582.673 496.532 587.5 485.262C592.327 474.001 594.745 460.313 594.745 444.212V342.098H627.518V444.212C627.518 467.444 624.412 487.453 618.204 504.238C611.992 521.032 603.198 534.766 591.811 545.461C580.428 556.156 566.572 564.038 550.24 569.092C533.908 574.15 515.746 576.685 495.737 576.685C475.724 576.685 457.558 574.15 441.23 569.092C424.898 564.038 410.986 556.156 399.487 545.461C387.984 534.766 379.133 521.032 372.922 504.238C366.715 487.453 363.611 467.444 363.611 444.212V342.098Z" fill="#000202"/>
<path d="M660.287 342.098H698.235V569.785H660.287V342.098Z" fill="#000202"/>
<path d="M739.629 342.098H772.402V528.386H953.514V569.785H739.629V342.098Z" fill="#000202"/>
<path d="M1125.65 528.386C1184.52 528.386 1213.97 504.238 1213.97 455.939C1213.97 407.644 1184.52 383.497 1125.65 383.497H1000.08V528.386H1125.65ZM1118.76 342.098C1160.84 342.098 1192.69 351.756 1214.31 371.077C1235.93 390.397 1246.74 419.372 1246.74 458.009C1246.74 532.524 1204.08 569.785 1118.76 569.785H967.307V342.098H1118.76Z" fill="#000202"/>
<path d="M403.833 691.584C405.543 690.48 406.397 688.776 406.397 686.463C406.397 681.888 403.005 679.6 396.223 679.6H381.318V693.246H396.223C399.586 693.246 402.125 692.696 403.833 691.584ZM381.318 657.283V670.295H394.015C397.17 670.295 399.562 669.741 401.191 668.637C402.821 667.533 403.638 665.904 403.638 663.747C403.638 661.589 402.821 659.978 401.191 658.899C399.562 657.82 397.17 657.283 394.015 657.283H381.318ZM416.571 679.168C418.358 681.506 419.252 684.381 419.252 687.802C419.252 692.642 417.373 696.356 413.613 698.963C409.854 701.565 404.372 702.866 397.17 702.866H368.619V647.658H395.59C402.321 647.658 407.488 648.951 411.09 651.524C414.69 654.101 416.49 657.593 416.49 662.013C416.49 664.695 415.848 667.088 414.559 669.191C413.27 671.29 411.47 672.948 409.156 674.156C412.311 675.16 414.782 676.83 416.571 679.168Z" fill="black"/>
<path d="M436.247 697.267C431.856 692.902 429.661 686.673 429.661 678.572V647.658H442.438V678.102C442.438 687.991 446.539 692.931 454.741 692.931C458.736 692.931 461.788 691.731 463.891 689.343C465.994 686.946 467.043 683.202 467.043 678.102V647.658H479.66V678.572C479.66 686.673 477.469 692.902 473.079 697.267C468.688 701.632 462.548 703.815 454.661 703.815C446.778 703.815 440.637 701.632 436.247 697.267Z" fill="black"/>
<path d="M493.466 647.658H506.242V702.866H493.466V647.658Z" fill="black"/>
<path d="M520.518 647.658H533.29V692.453H560.976V702.866H520.518V647.658Z" fill="black"/>
<path d="M593.783 692.377C599.303 692.377 603.706 690.837 606.992 687.76C610.279 684.688 611.92 680.52 611.92 675.26C611.92 670.005 610.279 665.837 606.992 662.76C603.706 659.688 599.303 658.148 593.783 658.148H582.11V692.377H593.783ZM569.333 647.658H594.413C600.407 647.658 605.704 648.804 610.304 651.092C614.909 653.379 618.481 656.599 621.033 660.75C623.58 664.905 624.856 669.741 624.856 675.26C624.856 680.784 623.58 685.619 621.033 689.775C618.481 693.926 614.909 697.15 610.304 699.433C605.704 701.72 600.407 702.866 594.413 702.866H569.333V647.658Z" fill="black"/>
<path d="M635.66 647.658H648.437V702.866H635.66V647.658Z" fill="black"/>
<path d="M713.345 647.658V702.866H702.856L675.329 669.346V702.866H662.712V647.658H673.277L700.724 681.179V647.658H713.345Z" fill="black"/>
<path d="M764.923 674.396H776.596V696.793C773.599 699.055 770.127 700.793 766.186 701.998C762.241 703.211 758.274 703.815 754.278 703.815C748.545 703.815 743.394 702.589 738.819 700.147C734.244 697.704 730.655 694.312 728.053 689.968C725.451 685.636 724.149 680.734 724.149 675.26C724.149 669.795 725.451 664.889 728.053 660.553C730.655 656.213 734.269 652.825 738.899 650.378C743.52 647.935 748.729 646.714 754.513 646.714C759.349 646.714 763.739 647.528 767.685 649.157C771.626 650.79 774.938 653.157 777.62 656.255L769.418 663.827C765.477 659.671 760.717 657.594 755.143 657.594C751.621 657.594 748.494 658.332 745.757 659.806C743.025 661.275 740.897 663.352 739.369 666.035C737.845 668.717 737.082 671.793 737.082 675.26C737.082 678.681 737.845 681.729 739.369 684.411C740.897 687.093 743.008 689.183 745.72 690.681C748.427 692.18 751.516 692.931 754.987 692.931C758.664 692.931 761.976 692.138 764.923 690.564V674.396Z" fill="black"/>
<path d="M855.854 692.612V702.866H813.108V647.658H854.83V657.908H825.809V669.896H851.439V679.84H825.809V692.612H855.854Z" fill="black"/>
<path d="M901.442 702.866L888.115 683.701L875.024 702.866H860.354L880.778 674.79L861.378 647.658H875.888L888.59 665.564L901.047 647.658H914.848L895.608 674.316L916.187 702.866H901.442Z" fill="black"/>
<path d="M973.054 647.658V702.866H960.277V680.23H935.193V702.866H922.421V647.658H935.193V669.426H960.277V647.658H973.054Z" fill="black"/>
<path d="M987.329 647.658H1000.1V702.866H987.329V647.658Z" fill="black"/>
<path d="M1049.59 691.584C1051.3 690.48 1052.16 688.776 1052.16 686.463C1052.16 681.888 1048.77 679.6 1041.98 679.6H1027.08V693.246H1041.98C1045.34 693.246 1047.88 692.696 1049.59 691.584ZM1027.08 657.283V670.295H1039.77C1042.93 670.295 1045.32 669.741 1046.95 668.637C1048.58 667.533 1049.4 665.904 1049.4 663.747C1049.4 661.589 1048.58 659.978 1046.95 658.899C1045.32 657.82 1042.93 657.283 1039.77 657.283H1027.08ZM1062.33 679.168C1064.12 681.506 1065.01 684.381 1065.01 687.802C1065.01 692.642 1063.13 696.356 1059.37 698.963C1055.61 701.565 1050.13 702.866 1042.93 702.866H1014.38V647.658H1041.35C1048.08 647.658 1053.25 648.951 1056.85 651.524C1060.45 654.101 1062.25 657.593 1062.25 662.013C1062.25 664.695 1061.61 667.088 1060.32 669.191C1059.03 671.29 1057.23 672.948 1054.91 674.156C1058.07 675.16 1060.54 676.83 1062.33 679.168Z" fill="black"/>
<path d="M1075.89 647.658H1088.67V702.866H1075.89V647.658Z" fill="black"/>
<path d="M1114.38 658.072H1096.72V647.658H1144.82V658.072H1127.16V702.866H1114.38V658.072Z" fill="black"/>
<path d="M1152.87 647.658H1165.64V702.866H1152.87V647.658Z" fill="black"/>
<path d="M1215.48 690.681C1218.12 689.183 1220.18 687.093 1221.68 684.411C1223.18 681.729 1223.93 678.681 1223.93 675.26C1223.93 671.844 1223.18 668.792 1221.68 666.114C1220.18 663.436 1218.12 661.342 1215.48 659.843C1212.86 658.345 1209.91 657.594 1206.65 657.594C1203.39 657.594 1200.45 658.345 1197.82 659.843C1195.19 661.342 1193.13 663.436 1191.63 666.114C1190.13 668.792 1189.38 671.844 1189.38 675.26C1189.38 678.681 1190.13 681.729 1191.63 684.411C1193.13 687.093 1195.19 689.183 1197.82 690.681C1200.45 692.18 1203.39 692.931 1206.65 692.931C1209.91 692.931 1212.86 692.18 1215.48 690.681ZM1191.15 700.105C1186.55 697.636 1182.95 694.228 1180.35 689.892C1177.75 685.552 1176.44 680.679 1176.44 675.26C1176.44 669.85 1177.75 664.968 1180.35 660.633C1182.95 656.292 1186.55 652.893 1191.15 650.42C1195.76 647.948 1200.92 646.714 1206.65 646.714C1212.38 646.714 1217.54 647.948 1222.11 650.42C1226.68 652.893 1230.28 656.292 1232.92 660.633C1235.54 664.968 1236.86 669.85 1236.86 675.26C1236.86 680.679 1235.54 685.552 1232.92 689.892C1230.28 694.228 1226.68 697.636 1222.11 700.105C1217.54 702.577 1212.38 703.815 1206.65 703.815C1200.92 703.815 1195.76 702.577 1191.15 700.105Z" fill="black"/>
<path d="M1298.3 647.658V702.866H1287.81L1260.28 669.346V702.866H1247.67V647.658H1258.23L1285.68 681.179V647.658H1298.3Z" fill="black"/>
<path d="M400.955 783.519L392.201 762.381L383.447 783.519H400.955ZM404.977 793.219H379.345L374.456 805.051H361.364L385.969 749.843H398.589L423.277 805.051H409.867L404.977 793.219Z" fill="black"/>
<path d="M480.849 749.843V805.051H470.36L442.834 771.531V805.051H430.216V749.843H440.785L468.228 783.364V749.843H480.849Z" fill="black"/>
<path d="M519.574 794.562C525.093 794.562 529.497 793.022 532.783 789.945C536.07 786.873 537.711 782.705 537.711 777.445C537.711 772.19 536.07 768.022 532.783 764.945C529.497 761.869 525.093 760.333 519.574 760.333H507.901V794.562H519.574ZM495.124 749.843H520.204C526.197 749.843 531.494 750.985 536.095 753.277C540.695 755.564 544.271 758.78 546.819 762.935C549.371 767.086 550.643 771.926 550.643 777.445C550.643 782.965 549.371 787.804 546.819 791.96C544.271 796.111 540.695 799.335 536.095 801.618C531.494 803.906 526.197 805.051 520.204 805.051H495.124V749.843Z" fill="black"/>
<path d="M597.725 760.093V774.688H623.278V784.938H597.725V805.051H584.952V749.843H626.674V760.093H597.725Z" fill="black"/>
<path d="M671.547 792.866C674.175 791.368 676.24 789.278 677.739 786.596C679.237 783.913 679.984 780.866 679.984 777.445C679.984 774.029 679.237 770.977 677.739 768.299C676.24 765.617 674.175 763.527 671.547 762.028C668.916 760.53 665.973 759.779 662.712 759.779C659.451 759.779 656.508 760.53 653.881 762.028C651.249 763.527 649.188 765.617 647.69 768.299C646.191 770.977 645.44 774.029 645.44 777.445C645.44 780.866 646.191 783.913 647.69 786.596C649.188 789.278 651.249 791.368 653.881 792.866C656.508 794.361 659.451 795.116 662.712 795.116C665.973 795.116 668.916 794.361 671.547 792.866ZM647.215 802.29C642.615 799.822 639.014 796.413 636.411 792.077C633.809 787.737 632.508 782.864 632.508 777.445C632.508 772.035 633.809 767.153 636.411 762.818C639.014 758.477 642.615 755.078 647.215 752.601C651.816 750.133 656.983 748.899 662.712 748.899C668.446 748.899 673.596 750.133 678.171 752.601C682.746 755.078 686.347 758.477 688.979 762.818C691.607 767.153 692.92 772.035 692.92 777.445C692.92 782.864 691.607 787.737 688.979 792.077C686.347 796.413 682.746 799.822 678.171 802.29C673.596 804.762 668.446 806 662.712 806C656.983 806 651.816 804.762 647.215 802.29Z" fill="black"/>
<path d="M735.667 762.738C733.665 761.084 730.748 760.253 726.911 760.253H716.497V779.498H726.911C730.748 779.498 733.665 778.658 735.667 776.975C737.661 775.292 738.66 772.925 738.66 769.873C738.66 766.771 737.661 764.396 735.667 762.738ZM738.899 805.051L728.25 789.672H716.497V805.051H703.725V749.843H727.621C732.51 749.843 736.754 750.658 740.355 752.286C743.957 753.919 746.731 756.232 748.679 759.225C750.622 762.226 751.596 765.777 751.596 769.873C751.596 773.978 750.609 777.512 748.641 780.484C746.668 783.456 743.869 785.727 740.238 787.305L752.62 805.051H738.899Z" fill="black"/>
<path d="M768.986 799.452C764.595 795.087 762.4 788.854 762.4 780.757V749.843H775.177V780.287C775.177 790.172 779.278 795.116 787.479 795.116C791.475 795.116 794.527 793.916 796.629 791.527C798.728 789.131 799.782 785.387 799.782 780.287V749.843H812.399V780.757C812.399 788.854 810.204 795.087 805.818 799.452C801.427 803.817 795.286 806 787.399 806C779.513 806 773.372 803.817 768.986 799.452Z" fill="black"/>
<path d="M876.438 805.051L876.362 771.926L860.114 799.213H854.355L838.191 772.635V805.051H826.204V749.843H836.768L857.432 784.153L877.781 749.843H888.27L888.425 805.051H876.438Z" fill="black"/>
<path d="M111.701 165.838V296.968H318.515V159.534L221.018 107.499L111.701 165.838Z" fill="#C21919"/>
</svg>
